<svg viewBox="0 0 216.27 65.11" xmlns="http://www.w3.org/2000/svg"><path d="m181.77 41.77h-5.29v-20.1h5.29v-3.19h-8.48v26.48h8.48z" fill="#2ccb9c"/><path d="m204.93 18.48v-8.12a10.36 10.36 0 0 0 -9.78-10.36 10.18 10.18 0 0 0 -10.53 10.15h3.19a7 7 0 0 1 7.22-7 7.13 7.13 0 0 1 6.71 7.17v8.12h-11.39v3.19h22.73v20.1h-22.73v3.27h25.92v-26.52z" fill="#2ccb9c"/><path d="m187.66 45.24v-26.3a5.45 5.45 0 0 1 5.44-5.44v-3.19a8.62 8.62 0 0 0 -7 3.65 8.6 8.6 0 0 0 -7-3.65v3.19a5.45 5.45 0 0 1 5.45 5.44v26.3a5.46 5.46 0 0 1 -5.55 5.45v3.19a8.61 8.61 0 0 0 7-3.66 8.63 8.63 0 0 0 7 3.66v-3.19a5.45 5.45 0 0 1 -5.34-5.45z" fill="#2ccb9c"/><g fill="#959fa6"><path d="m53.54 58.54v3.28l-5.26 3.29v-3.29zm-10.54 3.28v3.29l5.26-3.29v-3.28zm-5.25 0v3.29l5.25-3.29v-3.28zm15.79-9.82-5.26 3.28v3.29l5.26-3.29zm-5.26 0-5.28 3.25v3.29l5.26-3.29zm-5.28 0-5.25 3.28v3.29l5.25-3.32zm19.64 4.82a2.79 2.79 0 0 0 -1.8.68 1.61 1.61 0 0 0 -1.46-.68 2.47 2.47 0 0 0 -1.59.56v-.47h-1.24v5h1.36v-3.42a1.36 1.36 0 0 1 1.09-.56c.56 0 .84.3.84.91v3h1.35v-3.4a1.4 1.4 0 0 1 1.08-.52c.56 0 .85.3.85.91v3h1.34v-3.1c0-1.26-.63-1.94-1.8-1.94m5.55 0a2 2 0 0 0 -1.32.48v-.39h-1.31v7.28h1.35v-2.65a1.91 1.91 0 0 0 1.28.45 2.57 2.57 0 0 0 1.79-.71 2.66 2.66 0 0 0 .77-1.9 2.6 2.6 0 0 0 -.4-1.35 2.46 2.46 0 0 0 -2.16-1.22m-.22 4a1.43 1.43 0 0 1 -1.08-.48v-1.9a1.48 1.48 0 0 1 1.14-.5 1.34 1.34 0 0 1 1.32 1.42 1.36 1.36 0 0 1 -1.37 1.49m8.42-3.93h-1.29v.43a1.89 1.89 0 0 0 -1.34-.52 2.4 2.4 0 0 0 -1.23.32 2.54 2.54 0 0 0 -1.29 2.27 2.51 2.51 0 0 0 .36 1.34 2.43 2.43 0 0 0 2.15 1.28 1.89 1.89 0 0 0 1.36-.54v.43h1.27zm-2.42 3.93a1.34 1.34 0 0 1 -1.33-1.43 1.36 1.36 0 0 1 1.33-1.45 1.46 1.46 0 0 1 1.11.48v1.93a1.43 1.43 0 0 1 -1.12.47m3.61-3.93v5h1.36v-3.28a1.53 1.53 0 0 1 1.11-.6 1.38 1.38 0 0 1 .38 0v-1.21a2 2 0 0 0 -1.62.55v-.46zm5.84 0v-1.65h-1.37v1.65h-1.07v1.12h1v3.85h1.34v-3.85h1.12v-1.12zm1.88-.66h1.42v-1.36h-1.45zm0 .66h1.36v5h-1.36zm6.06 3.31a1.45 1.45 0 0 1 -1.22.61 1.27 1.27 0 0 1 -1.3-1.4 1.34 1.34 0 0 1 2.47-.84l1-.64a2.42 2.42 0 0 0 -2.2-1.13 2.7 2.7 0 0 0 -1.33.33 2.54 2.54 0 0 0 -1.33 2.27 2.59 2.59 0 0 0 .36 1.32 2.75 2.75 0 0 0 4.51.13zm3.23-5.78h-1.35v7.44h1.35zm5.6 6.43a2.6 2.6 0 0 1 -2.21 1.1 2.64 2.64 0 0 1 -1.92-.76 2.59 2.59 0 0 1 -.71-1.81 2.5 2.5 0 0 1 1.25-2.24 2.62 2.62 0 0 1 1.38-.35 2.46 2.46 0 0 1 2.52 2.7 1.41 1.41 0 0 1 0 .2h-3.81a1.22 1.22 0 0 0 1.29 1.11 1.56 1.56 0 0 0 1.24-.57zm-3.44-2h2.47a1.12 1.12 0 0 0 -1.19-.92 1.24 1.24 0 0 0 -1.28.92"/><path d="m.54 55.05h2.46c1.4 0 2.23.53 2.23 1.77a1.4 1.4 0 0 1 -1.11 1.48 1.49 1.49 0 0 1 1.36 1.61c0 1.27-.84 1.9-2.33 1.9h-2.61zm2.28 2.86c.84 0 1.16-.3 1.16-1 .02-.68-.37-.91-1.18-.91h-1v2zm.18 3c.85 0 1.24-.38 1.24-1.08 0-.7-.39-1-1.32-1h-1.14v2.17z"/><path d="m6.36 60.06v-3.18h1.15v3c0 .75.31 1.09 1 1.09a1.11 1.11 0 0 0 1.16-1.19v-2.9h1.15v5h-1.18v-.77a1.67 1.67 0 0 1 -1.57.87c-.98-.04-1.71-.6-1.71-1.92z"/><path d="m11.78 55.4a.66.66 0 0 1 .68-.66.66.66 0 1 1 -.68.66zm.12 1.48h1.15v5h-1.15z"/><path d="m14.17 54.58h1.15v7.26h-1.15z"/><path d="m16.62 60.46v-2.72h-.62v-.86h.67v-1.1h1.15v1.1h1.09v.86h-1.14v2.61c0 .44.21.64.57.64a1.4 1.4 0 0 0 .56-.1v.92a2.4 2.4 0 0 1 -.78.12 1.33 1.33 0 0 1 -1.5-1.47z"/><path d="m23.15 61.05v.79h-1.15v-7.26h1.15v3.09a2 2 0 0 1 1.63-.9 2.24 2.24 0 0 1 2.22 2.53v.07c0 1.6-.92 2.57-2.2 2.57a1.79 1.79 0 0 1 -1.65-.89zm2.65-1.66v-.07c0-1.1-.57-1.65-1.32-1.65s-1.37.55-1.37 1.65v.07c0 1.11.55 1.64 1.38 1.64s1.31-.57 1.31-1.64z"/><path d="m29 61.34-2-4.46h1.25l1.32 3.2 1.22-3.2h1.21l-2.71 6.67h-1.16z"/></g><path d="m16 31a8.19 8.19 0 0 0 -3.1-2.77c-1.61-.86-3.32-1.43-4.9-2.23a5.54 5.54 0 0 1 -2.27-1.69 2.27 2.27 0 0 1 -.07-2.31 3.18 3.18 0 0 1 1.84-1.44 6 6 0 0 1 3.15-.08 7.14 7.14 0 0 1 2.5 1.08 4.59 4.59 0 0 0 .57.32c.65-.76 1.21-1.62 1.85-2.4a2.41 2.41 0 0 0 .4-.63 11.83 11.83 0 0 0 -5.2-2.29c-.64 0-1.29-.15-1.94-.14a9.27 9.27 0 0 0 -3.4.74 8.36 8.36 0 0 0 -1.91 1.13 6.39 6.39 0 0 0 -2.32 5.89 6.07 6.07 0 0 0 2.28 4 16.66 16.66 0 0 0 4.42 2.26 11.84 11.84 0 0 1 4 2.22 2.84 2.84 0 0 1 .47 3.19 3.67 3.67 0 0 1 -2.85 2 3.51 3.51 0 0 1 -1.25 0 6.4 6.4 0 0 1 -3-.77 9.94 9.94 0 0 1 -2.48-2 10.73 10.73 0 0 0 -1.1.94c-.57.52-1.17 1-1.72 1.56a10.86 10.86 0 0 0 7 4 9.81 9.81 0 0 0 6.4-1.08 6.92 6.92 0 0 0 3.37-5 6 6 0 0 0 .13-1.5 6 6 0 0 0 -.87-3z" fill="#121212"/><path d="m95 38.16a3.29 3.29 0 0 1 -1.5-.13 1.72 1.72 0 0 1 -1-.93 4.38 4.38 0 0 1 -.17-1.49v-7.74h5.1c0-1.1 0-2.19 0-3.29a5.11 5.11 0 0 0 -1.3-.08h-3.85v-4.17a8.51 8.51 0 0 0 0-1.43c-1.33 0-2.67 0-4 0v5.57h-2.83a5.77 5.77 0 0 0 -1.31.08v3.29h4v8.3a6.39 6.39 0 0 0 1.06 3.53 4.32 4.32 0 0 0 1.52 1.33 6.09 6.09 0 0 0 1.82.65 7.78 7.78 0 0 0 3.68-.25 6.63 6.63 0 0 0 1.65-.8c-.4-1-.91-2-1.36-2.94a5.35 5.35 0 0 1 -1.51.5z" fill="#121212"/><path d="m45.16 25.88a7.91 7.91 0 0 0 -4.71-1.68 8.72 8.72 0 0 0 -1.91.11 8.84 8.84 0 0 0 -4.47 2.57 7.56 7.56 0 0 0 -4.75-2.64 7.38 7.38 0 0 0 -2.77.19 9 9 0 0 0 -3 1.67v-1.56h-3.84v16.87h4c0-3.8 0-7.6 0-11.4a6.56 6.56 0 0 1 3.07-2 4.25 4.25 0 0 1 3.24.44 3.52 3.52 0 0 1 1.32 1.55 4.94 4.94 0 0 1 .33 1.9v8a10.89 10.89 0 0 0 0 1.51h4v-9.31a18.17 18.17 0 0 0 -.18-1.94 7.34 7.34 0 0 1 2.09-1.71 4.6 4.6 0 0 1 3.68-.34 3.5 3.5 0 0 1 1.92 1.71 5.91 5.91 0 0 1 .42 2.5v9.09h4v-8.63a12.68 12.68 0 0 0 -.46-3.84 6.54 6.54 0 0 0 -1.98-3.06z" fill="#121212"/><path d="m75.76 26.41c0-.62 0-1.24 0-1.86-1.3 0-2.61 0-3.92 0v16.86q2 0 4 0c0-3.59 0-7.19 0-10.79a6.44 6.44 0 0 1 1.63-1.62 5.89 5.89 0 0 1 2.38-.89 8.38 8.38 0 0 1 2.18 0v-3.64a6.83 6.83 0 0 0 -6.27 1.94z" fill="#121212"/><path d="m114.13 24.56c-1.59 3.48-3.2 7-4.78 10.43a.68.68 0 0 1 -.2.27 6.37 6.37 0 0 1 -.39-.73q-2.48-5-5-10c-1.42 0-2.84 0-4.26 0a3.49 3.49 0 0 0 .42 1c2.34 4.7 4.7 9.44 7 14.15.12.2.07.27 0 .46-1.36 2.89-2.69 5.78-4 8.66a4.73 4.73 0 0 0 -.25.66h2.75a11.69 11.69 0 0 0 1.32 0 1.24 1.24 0 0 0 .17-.27l10.83-23.47a8.26 8.26 0 0 0 .49-1.19c-1.36 0-2.74-.01-4.1.03z" fill="#121212"/><path d="m151.21 24.57a9.21 9.21 0 0 0 -3.8-.3 7.5 7.5 0 0 0 -5 2.8 9.29 9.29 0 0 0 -1.89 4.67 10.26 10.26 0 0 0 .44 4.37 8 8 0 0 0 3.59 4.43 8.87 8.87 0 0 0 3.82 1.17 8.5 8.5 0 0 0 2.71-.12 8.93 8.93 0 0 0 4.92-2.72 1.78 1.78 0 0 0 .24-.32 1.23 1.23 0 0 0 -.31-.37c-.66-.62-1.3-1.26-2-1.89a8.8 8.8 0 0 1 -2.66 1.71 5.49 5.49 0 0 1 -2.48.24 5 5 0 0 1 -2.71-1 4.52 4.52 0 0 1 -1.78-3.24h12.28a9.72 9.72 0 0 0 -1.42-6.29 7.64 7.64 0 0 0 -3.95-3.14zm.73 6.42h-7.33a3.53 3.53 0 0 1 1.32-2.41 4.17 4.17 0 0 1 4.83-.4 4.12 4.12 0 0 1 1.74 2.58l.1.14a3.62 3.62 0 0 1 -.66.1z" fill="#121212"/><path d="m64.27 24.57v1.49a7.7 7.7 0 0 0 -5.52-1.87 8 8 0 0 0 -4.47 1.63 9 9 0 0 0 -3.1 4.61 10.36 10.36 0 0 0 -.27 3.68 9 9 0 0 0 4.29 6.63 8.62 8.62 0 0 0 4.57 1 7.78 7.78 0 0 0 4.38-1.74h.16v1.47q1.89 0 3.78 0v-16.93c-1.27.01-2.55-.04-3.82.03zm-1.7 12.71a5.69 5.69 0 0 1 -3.79.73 4.66 4.66 0 0 1 -2.46-1.35 5.48 5.48 0 0 1 -1.38-3 6.79 6.79 0 0 1 .17-2.29 4.94 4.94 0 0 1 3-3.24 5.36 5.36 0 0 1 2.69-.2 5.94 5.94 0 0 1 2.94 1.66c.15.18.35.3.33.56v5.79a6.43 6.43 0 0 1 -1.5 1.34z" fill="#121212"/><path d="m129.65 24.2a7.08 7.08 0 0 0 -2.74.41 10.78 10.78 0 0 0 -2.49 1.48c0-.51 0-1 0-1.55h-3.78v25h4c0-3.1 0-6.21 0-9.31h.18a7.18 7.18 0 0 0 4 1.56h1.48a6.86 6.86 0 0 0 1.48-.32 8.4 8.4 0 0 0 1.77-.77 8.88 8.88 0 0 0 4.28-7.88 9.13 9.13 0 0 0 -2.31-5.91 8 8 0 0 0 -5.87-2.71zm3.62 11.17a4.86 4.86 0 0 1 -2.27 2.27 5.37 5.37 0 0 1 -6.29-1.64 1.9 1.9 0 0 1 -.06-.54q0-2.43 0-4.86a5.67 5.67 0 0 1 .06-.71 6.1 6.1 0 0 1 2.67-1.8 7 7 0 0 1 2.5-.15 4.47 4.47 0 0 1 2.64 1.48 5.51 5.51 0 0 1 .75 5.95z" fill="#121212"/></svg>